<svg id="Layer_1" data-name="Layer 1" xmlns="http://www.w3.org/2000/svg" viewBox="0 0 1024 1024"><defs><style>.cls-1{fill:#fff;}.cls-2{fill:#3a4ee8;}.cls-3{fill:#00ca65;}</style></defs><rect class="cls-1" width="1024" height="1024" rx="132.28"/><g id="Group_169" data-name="Group 169"><path id="Union_1-2" data-name="Union 1-2" class="cls-2" d="M784.26,658.1,494.37,461.7,208,658.1H131.87L495,406.93,677.72,532.52V468.84h36.9v88.69L856.88,658.1Zm-82.7-206.59c-3.49-.53-23-4.46-29.95-11.16l19-28.28a81.58,81.58,0,0,0,10.46,2.38,57.13,57.13,0,0,0,8.56.8,18.22,18.22,0,0,0,7.62-1.59,16.35,16.35,0,0,0,6.33-5.54,54.36,54.36,0,0,0,5.7-10.93q2.85-7,6-17.43l-65.58-166h43.71l45,129.28,39.91-129.28h39.92L768.57,412.7A59.5,59.5,0,0,1,748,441.21a57.86,57.86,0,0,1-36.11,11.09A68.07,68.07,0,0,1,701.56,451.51ZM451.61,384.3V359.48a55.22,55.22,0,0,1-21.38,15.85,77.35,77.35,0,0,1-33.9,7.61,63,63,0,0,1-22.49-4,54.08,54.08,0,0,1-18-11.08A51.75,51.75,0,0,1,344,351.27a50.5,50.5,0,0,1-4.24-20.92,46.11,46.11,0,0,1,5.23-21.69,49.63,49.63,0,0,1,14.58-16.93,71.91,71.91,0,0,1,22.32-10.93,97.27,97.27,0,0,1,28.52-4,122.33,122.33,0,0,1,21.7,1.9,89.08,89.08,0,0,1,18.86,5.38v-9.54a33.33,33.33,0,0,0-9.31-25.38,38.9,38.9,0,0,0-27.73-8.86,73.22,73.22,0,0,0-26,4.74,121.07,121.07,0,0,0-26,13.94l-13-26.93a122.6,122.6,0,0,1,69-21.18,80.89,80.89,0,0,1,55.59,17.58,64.44,64.44,0,0,1,19.81,50.84L493,331v48.78h0v4.55Zm0-1.37M390.31,308a22.37,22.37,0,0,0-10.48,18.85,22.66,22.66,0,0,0,8.23,17.9,29.86,29.86,0,0,0,20.31,7.13,55.14,55.14,0,0,0,20.43-3.8,37,37,0,0,0,15.05-10.15,15.24,15.24,0,0,0,7-12v-19a104.8,104.8,0,0,0-16.47-4.59,87.82,87.82,0,0,0-17.11-1.74A45.41,45.41,0,0,0,390.31,308Zm164.42,68.27a99.74,99.74,0,0,1-34.22-19l15.88-26.61A136.77,136.77,0,0,0,566,347a79.47,79.47,0,0,0,28.67,5.53,36.3,36.3,0,0,0,20-4.75,15.3,15.3,0,0,0,7.28-13.61,13.6,13.6,0,0,0-8.55-13,186.39,186.39,0,0,0-27.9-9.5q-16.15-4.42-27.56-8.55a70.94,70.94,0,0,1-18.37-9.31,31.92,31.92,0,0,1-10.16-12,38.34,38.34,0,0,1-3.17-16.32,51.68,51.68,0,0,1,4.91-22.85,49.78,49.78,0,0,1,13.77-17.27,63.75,63.75,0,0,1,20.76-10.89,84.34,84.34,0,0,1,25.82-3.8,111.26,111.26,0,0,1,35,5.38,85.5,85.5,0,0,1,29.94,17.42l-17.11,25.66a99.79,99.79,0,0,0-24.54-13.94,67.25,67.25,0,0,0-23.6-4.43,34.12,34.12,0,0,0-18,4.43,15.43,15.43,0,0,0-7.29,14.26,13.73,13.73,0,0,0,1.75,7.28,15.18,15.18,0,0,0,5.54,5.08,53.78,53.78,0,0,0,10,4.23q6.17,2.07,15.36,4.28,17.12,4.44,29.3,8.87a79.61,79.61,0,0,1,20,10.16,36,36,0,0,1,11.38,13.15,40.3,40.3,0,0,1,3.65,17.9,46.19,46.19,0,0,1-18,38.49,77.89,77.89,0,0,1-49.08,14.1A128.38,128.38,0,0,1,554.73,376.27Zm-386.79,3.49V131.47H324.26V169.8H211.64v62h83v35.49h-83v74.17H324.26v38.34Z"/><path id="Union_2-2" data-name="Union 2-2" class="cls-3" d="M784.1,885.88a99.8,99.8,0,0,1-34.19-19l15.84-26.61a136.77,136.77,0,0,0,29.62,16.31A79.06,79.06,0,0,0,824,862.11a36.38,36.38,0,0,0,20-4.74,15.31,15.31,0,0,0,7.28-13.63,13.62,13.62,0,0,0-8.55-13,185.89,185.89,0,0,0-27.91-9.53q-16.14-4.43-27.56-8.56a70.94,70.94,0,0,1-18.37-9.31,32.07,32.07,0,0,1-10.16-12A38.61,38.61,0,0,1,755.56,775a51.68,51.68,0,0,1,4.91-22.85,49.76,49.76,0,0,1,13.8-17.24A63.89,63.89,0,0,1,795,724a84.35,84.35,0,0,1,25.82-3.81,110.87,110.87,0,0,1,35,5.39A85.32,85.32,0,0,1,885.79,743l-17.11,25.65a99.12,99.12,0,0,0-24.54-13.93,67.29,67.29,0,0,0-23.6-4.43,34.22,34.22,0,0,0-18,4.43A15.43,15.43,0,0,0,795.2,769a13.81,13.81,0,0,0,1.74,7.28,15.21,15.21,0,0,0,5.55,5.08,53.22,53.22,0,0,0,10,4.28q6.18,2.05,15.37,4.28,17.1,4.44,29.3,8.87a79.91,79.91,0,0,1,20,10.15,36.19,36.19,0,0,1,11.4,13.17,40.43,40.43,0,0,1,3.64,17.9,46.18,46.18,0,0,1-18.06,38.49A77.82,77.82,0,0,1,825,892.55,128.6,128.6,0,0,1,784.1,885.88Zm-189.13,0a75,75,0,0,1-25-18.37,85.75,85.75,0,0,1-16.32-27.41,95.62,95.62,0,0,1-5.86-33.74,98.93,98.93,0,0,1,5.55-33.58,87.9,87.9,0,0,1,15.36-27.24,70.8,70.8,0,0,1,23.44-18.37,67,67,0,0,1,29.77-6.66A63,63,0,0,1,655,729.38a64.22,64.22,0,0,1,23,23.12V658.1h42.46V889.36H684.31V860.52a60.07,60.07,0,0,1-24.86,23.92,70.69,70.69,0,0,1-32.8,8.07A75.3,75.3,0,0,1,595,885.88Zm22.65-125.13A41.62,41.62,0,0,0,603.85,772,53.78,53.78,0,0,0,595,788.3a58,58,0,0,0-3.18,19,52.54,52.54,0,0,0,3.49,19.33,50.38,50.38,0,0,0,9.5,15.52,43.55,43.55,0,0,0,14.39,10.46,44.42,44.42,0,0,0,18.53,3.8,39.59,39.59,0,0,0,12.35-2.06,43.6,43.6,0,0,0,11.72-5.85,52.2,52.2,0,0,0,9.67-8.87,36.85,36.85,0,0,0,6.48-11.1v-39.6a46.39,46.39,0,0,0-7.13-12.83A53,53,0,0,0,660.34,766,54.66,54.66,0,0,0,648,759.18a35.25,35.25,0,0,0-12.83-2.54A38.22,38.22,0,0,0,617.62,760.75ZM477.14,889.38v-166H519.6v166Zm-211.31,0V664.43H386.21a44.43,44.43,0,0,1,21.23,5.08,52.94,52.94,0,0,1,16.16,13.14,60.3,60.3,0,0,1,10.29,18.4,61.56,61.56,0,0,1-4.59,51.62,50.14,50.14,0,0,1-24.08,21.39,57.86,57.86,0,0,1,30.57,20.43A59.09,59.09,0,0,1,447,831.38a51,51,0,0,1-21.38,43.08,73.53,73.53,0,0,1-23.13,11.09,100.65,100.65,0,0,1-28,3.8Zm43.72-37.06H374.5a28.32,28.32,0,0,0,11.23-2.23,26.59,26.59,0,0,0,9-6.18A30.1,30.1,0,0,0,403,823.14,33.07,33.07,0,0,0,401,811.58a32.16,32.16,0,0,0-5.54-9.66,25.77,25.77,0,0,0-8.24-6.49,23,23,0,0,0-10.46-2.38H309.55Zm0-93.78h58.29a25.88,25.88,0,0,0,18.85-7.61A27.93,27.93,0,0,0,394.45,730a28.91,28.91,0,0,0-7.13-20.59,23.18,23.18,0,0,0-17.58-7.61H309.55ZM503.09,657.38v-30.8h31.06v30.8Zm-39.73,0v-30.8h31.05v30.8Zm39.73-38.93v-30.8h31.06v30.83Zm-39.73,0v-30.8h31.05v30.83Z"/></g></svg>